<svg xmlns="http://www.w3.org/2000/svg" viewBox="0 0 16 16" width="16" height="16" shape-rendering="crispEdges">
<rect width="16" height="16" fill="#3078c0"/>
<rect x="1" y="1" width="1" height="1" fill="#50a0e0"/>
<rect x="2" y="1" width="1" height="1" fill="#50a0e0"/>
<rect x="11" y="1" width="1" height="1" fill="#50a0e0"/>
<rect x="12" y="1" width="1" height="1" fill="#50a0e0"/>
<rect x="0" y="2" width="1" height="1" fill="#50a0e0"/>
<rect x="1" y="2" width="1" height="1" fill="#c0e0f8"/>
<rect x="2" y="2" width="1" height="1" fill="#c0e0f8"/>
<rect x="3" y="2" width="1" height="1" fill="#50a0e0"/>
<rect x="10" y="2" width="1" height="1" fill="#50a0e0"/>
<rect x="11" y="2" width="1" height="1" fill="#c0e0f8"/>
<rect x="12" y="2" width="1" height="1" fill="#c0e0f8"/>
<rect x="13" y="2" width="1" height="1" fill="#50a0e0"/>
<rect x="1" y="3" width="1" height="1" fill="#50a0e0"/>
<rect x="2" y="3" width="1" height="1" fill="#50a0e0"/>
<rect x="11" y="3" width="1" height="1" fill="#50a0e0"/>
<rect x="12" y="3" width="1" height="1" fill="#50a0e0"/>
<rect x="5" y="5" width="1" height="1" fill="#50a0e0"/>
<rect x="6" y="5" width="1" height="1" fill="#50a0e0"/>
<rect x="14" y="5" width="1" height="1" fill="#50a0e0"/>
<rect x="15" y="5" width="1" height="1" fill="#50a0e0"/>
<rect x="5" y="6" width="1" height="1" fill="#50a0e0"/>
<rect x="6" y="6" width="1" height="1" fill="#c0e0f8"/>
<rect x="7" y="6" width="1" height="1" fill="#c0e0f8"/>
<rect x="8" y="6" width="1" height="1" fill="#50a0e0"/>
<rect x="14" y="6" width="1" height="1" fill="#50a0e0"/>
<rect x="15" y="6" width="1" height="1" fill="#c0e0f8"/>
<rect x="5" y="7" width="1" height="1" fill="#50a0e0"/>
<rect x="6" y="7" width="1" height="1" fill="#50a0e0"/>
<rect x="14" y="7" width="1" height="1" fill="#50a0e0"/>
<rect x="15" y="7" width="1" height="1" fill="#50a0e0"/>
<rect x="1" y="9" width="1" height="1" fill="#50a0e0"/>
<rect x="2" y="9" width="1" height="1" fill="#50a0e0"/>
<rect x="11" y="9" width="1" height="1" fill="#50a0e0"/>
<rect x="12" y="9" width="1" height="1" fill="#50a0e0"/>
<rect x="0" y="10" width="1" height="1" fill="#50a0e0"/>
<rect x="1" y="10" width="1" height="1" fill="#c0e0f8"/>
<rect x="2" y="10" width="1" height="1" fill="#c0e0f8"/>
<rect x="3" y="10" width="1" height="1" fill="#50a0e0"/>
<rect x="10" y="10" width="1" height="1" fill="#50a0e0"/>
<rect x="11" y="10" width="1" height="1" fill="#c0e0f8"/>
<rect x="12" y="10" width="1" height="1" fill="#c0e0f8"/>
<rect x="13" y="10" width="1" height="1" fill="#50a0e0"/>
<rect x="1" y="11" width="1" height="1" fill="#50a0e0"/>
<rect x="2" y="11" width="1" height="1" fill="#50a0e0"/>
<rect x="11" y="11" width="1" height="1" fill="#50a0e0"/>
<rect x="12" y="11" width="1" height="1" fill="#50a0e0"/>
<rect x="5" y="13" width="1" height="1" fill="#50a0e0"/>
<rect x="6" y="13" width="1" height="1" fill="#50a0e0"/>
<rect x="14" y="13" width="1" height="1" fill="#50a0e0"/>
<rect x="15" y="13" width="1" height="1" fill="#50a0e0"/>
<rect x="5" y="14" width="1" height="1" fill="#50a0e0"/>
<rect x="6" y="14" width="1" height="1" fill="#c0e0f8"/>
<rect x="7" y="14" width="1" height="1" fill="#c0e0f8"/>
<rect x="8" y="14" width="1" height="1" fill="#50a0e0"/>
<rect x="14" y="14" width="1" height="1" fill="#50a0e0"/>
<rect x="15" y="14" width="1" height="1" fill="#c0e0f8"/>
<rect x="5" y="15" width="1" height="1" fill="#50a0e0"/>
<rect x="6" y="15" width="1" height="1" fill="#50a0e0"/>
<rect x="14" y="15" width="1" height="1" fill="#50a0e0"/>
<rect x="15" y="15" width="1" height="1" fill="#50a0e0"/>
</svg>